# xmcd
#
# Track frame offsets:
#	150
#	12978
#	25869
#	37625
#	60047
#	73800
#	90266
#	106557
#	121483
#	137832
#	157056
#	171814
#	188567
#
# Disc length: 2731 seconds
#
# Revision: 0
# Processed by: cddbd v1.4b42PL0 Copyright (c) Steve Scherf et al.
# Submitted via: OrangeCD 4.1
#
DISCID=940aa90d
DTITLE=Barbara Morrison - Ooh-Shoobie-Doo!
DYEAR=1900
DGENRE=
TTITLE0=You're My Meat
TTITLE1=Lonesome and Blue
TTITLE2=The Dat the Blues Walked In
TTITLE3=Lover Man
TTITLE4=Ooh - Shooby - Doo
TTITLE5=Blue Mood
TTITLE6=That's All Right/Someone Else Is Steppin' In
TTITLE7=Every Beat Of My Heart
TTITLE8=Willie and The Hand Jive
TTITLE9=Misery
TTITLE10=Bye Bye Baby, Bye Bye
TTITLE11=You're My Dream Come True
TTITLE12=Bring My Baby Back To Me
EXTD=
EXTT0=
EXTT1=
EXTT2=
EXTT3=
EXTT4=
EXTT5=
EXTT6=
EXTT7=
EXTT8=
EXTT9=
EXTT10=
EXTT11=
EXTT12=
PLAYORDER=
